<svg width="635" height="104" viewBox="0 0 635 104" fill="none" xmlns="http://www.w3.org/2000/svg">
<g clip-path="url(#clip0_420_6260)">
<path fill-rule="evenodd" clip-rule="evenodd" d="M115.205 8.54234C106.401 4.55168 96.9882 1.65131 87.1471 0C85.9384 2.11706 84.5264 4.96451 83.553 7.22976C73.0915 5.70548 62.7262 5.70548 52.4572 7.22976C51.4838 4.96451 50.0398 2.11706 48.8203 0C38.9685 1.65131 29.5446 4.56227 20.7411 8.56351C2.98432 34.561 -1.82926 59.9128 0.577527 84.9047C12.3548 93.4259 23.7683 98.6021 34.9893 101.989C37.7598 98.2951 40.2307 94.368 42.3594 90.2291C38.3053 88.7366 34.4224 86.8948 30.7533 84.7565C31.7267 84.0579 32.6788 83.3275 33.5987 82.576C55.9765 92.7167 80.2904 92.7167 102.401 82.576C103.331 83.3275 104.283 84.0579 105.246 84.7565C101.566 86.9053 97.6728 88.7472 93.6187 90.2397C95.7474 94.368 98.2077 98.3057 100.989 102C112.221 98.6127 123.645 93.4365 135.422 84.9047C138.246 55.9327 130.598 30.8138 115.205 8.54234ZM67.4934 55.5864C65.73 56.8337 62.2033 61.056 62.2033 67.043H54.2682C58.6766 68.7357 67.4934 74.5267 67.4934 84.1486C68.4632 78.4467 72.6248 67.043 81.5121 67.043H73.3125C73.3125 60.1287 69.4122 57.0492 67.4934 55.5864ZM116.722 33.7255L74.5299 50.3112L78.8144 50.9568C79.0729 54.0879 82.1606 60.7375 92.4434 62.287C105.297 64.2238 111.672 50.997 112.395 46.1949C112.974 42.3533 112.726 39.1511 112.53 38.0302L116.722 33.7255ZM82.3093 50.2936L85.8342 48.6076C87.4892 50.8894 91.7664 54.8228 95.6353 52.3017C99.5041 49.7805 99.1301 45.9918 98.4595 44.4126L102.599 42.2648C103.68 43.5363 105.464 47.131 103.958 51.3385C102.451 55.546 100.312 57.4409 96.2543 59.0467C92.2092 59.361 83.6918 58.484 82.3093 50.2936ZM61.1443 50.3112L18.9519 33.7255L23.1439 38.0302C22.9477 39.1511 22.6999 42.3533 23.2788 46.1949C24.0024 50.997 30.3773 64.2238 43.2308 62.287C53.5136 60.7375 56.6013 54.0879 56.8598 50.9568L61.1443 50.3112ZM49.84 48.6076L53.3649 50.2936C51.9824 58.484 43.4649 59.361 39.4198 59.0467C35.3619 57.4409 33.2228 55.546 31.7166 51.3385C30.2103 47.131 31.9946 43.5363 33.075 42.2648L37.2147 44.4126C36.5441 45.9918 36.1701 49.7805 40.0389 52.3017C43.9077 54.8228 48.185 50.8894 49.84 48.6076Z" fill="white"/>
<path d="M193.059 58.512V65.938H224.817V80H173.309V24.7H224.58V38.762H193.059V45.556H223V58.512H193.059ZM254.885 31.731C272.739 31.731 282.535 40.579 282.535 56.774V80H263.812V74.233C260.573 78.973 255.359 81.58 247.854 81.58C237.11 81.58 230.948 75.102 230.948 66.57C230.948 57.722 237.663 51.481 248.96 51.481C255.438 51.481 260.099 53.298 263.733 57.643C263.18 50.296 257.018 46.662 248.565 46.662C242.798 46.662 237.426 48.716 233.16 52.35V37.893C238.137 34.496 245.168 31.731 254.885 31.731ZM255.675 70.678C260.415 70.678 263.812 68.624 263.812 65.385C263.812 62.304 260.573 60.25 255.754 60.25C251.33 60.25 248.565 62.383 248.565 65.464C248.565 68.624 251.33 70.678 255.675 70.678ZM329.108 43.502V33.785H348.384V68.545C348.384 86.399 335.665 96.432 314.809 96.432C305.487 96.432 297.034 94.141 292.452 90.823V76.919C296.007 80 303.038 83.081 310.622 83.081C322.551 83.081 329.108 77.551 329.108 66.491V65.306C325.395 73.601 318.996 77.077 310.385 77.077C296.718 77.077 288.423 67.755 288.423 54.957C288.423 41.053 297.429 31.731 310.859 31.731C319.786 31.731 325.553 35.523 329.108 43.502ZM318.68 64.121C325.079 64.121 329.187 60.25 329.187 54.878C329.187 49.427 325.158 45.635 318.838 45.635C312.518 45.635 308.489 49.506 308.489 55.036C308.489 60.329 312.518 64.121 318.68 64.121ZM376.334 80H357.058V23.12H376.334V80ZM437.831 55.036V60.329H402.518C404.809 64.516 410.339 66.965 419.029 66.965C425.981 66.965 431.274 65.227 436.251 62.225V75.892C431.195 79.21 422.979 81.58 414.052 81.58C394.618 81.58 382.926 71.152 382.926 56.221C382.926 42.159 393.512 31.731 411.524 31.731C429.299 31.731 437.831 40.974 437.831 55.036ZM412.472 45.556C406.784 45.556 403.15 48.084 402.044 51.876H422.268C421.478 47.847 418.081 45.556 412.472 45.556ZM480.73 58.512V65.938H512.488V80H460.98V24.7H512.251V38.762H480.73V45.556H510.671V58.512H480.73ZM547.138 58.67L558.277 33.785H578.738L547.77 95.01H525.966L536.315 75.813L516.091 33.785H536.71L547.138 58.67ZM632.384 55.036V60.329H597.071C599.362 64.516 604.892 66.965 613.582 66.965C620.534 66.965 625.827 65.227 630.804 62.225V75.892C625.748 79.21 617.532 81.58 608.605 81.58C589.171 81.58 577.479 71.152 577.479 56.221C577.479 42.159 588.065 31.731 606.077 31.731C623.852 31.731 632.384 40.974 632.384 55.036ZM607.025 45.556C601.337 45.556 597.703 48.084 596.597 51.876H616.821C616.031 47.847 612.634 45.556 607.025 45.556Z" fill="white"/>
</g>
<defs>
<clipPath id="clip0_420_6260">
<rect width="635" height="104" fill="white"/>
</clipPath>
</defs>
</svg>
