<svg width="24" height="24" viewBox="0 0 24 24" fill="none" xmlns="http://www.w3.org/2000/svg">
<path d="M22.7071 2.70711C23.0976 2.31658 23.0976 1.68342 22.7071 1.29289C22.3166 0.902369 21.6834 0.902369 21.2929 1.29289L1.29289 21.2929C0.902369 21.6834 0.902369 22.3166 1.29289 22.7071C1.68342 23.0976 2.31658 23.0976 2.70711 22.7071L22.7071 2.70711Z" fill="white"/>
<path d="M17.0585 2.94148C17.2906 2.70941 17.2399 2.32021 16.9468 2.17241C15.4597 1.42241 13.7792 1 12 1C5.92487 1 1 5.92487 1 12C1 13.7794 1.42259 15.4599 2.17252 16.9467C2.32031 17.2398 2.70951 17.2905 2.94158 17.0584L6.13108 13.8689C6.388 13.612 6.29123 13.1787 5.93551 13.1047C5.60384 13.0357 5.26291 13 4.91738 13H3.05492C3.01863 12.6717 3 12.338 3 12C3 7.02944 7.02944 3 12 3C13.3254 3 14.5839 3.28651 15.7169 3.80097C15.9134 3.89017 16.146 3.85396 16.2986 3.7014L17.0585 2.94148Z" fill="white"/>
<path d="M20.199 8.28305C20.1098 8.0866 20.146 7.85396 20.2986 7.7014L21.0585 6.94147C21.2906 6.7094 21.6798 6.76013 21.8276 7.05316C22.5776 8.54024 23 10.2208 23 12C23 16.1428 20.7094 19.7493 17.3303 21.6244C16.0577 22.3305 14.6004 21.8549 13.7797 20.8822C12.8717 19.8061 12.8017 18.2537 13.6091 17.1003L14.9865 15.1327C15.9221 13.7961 17.4511 13 19.0826 13H20.9451C20.9814 12.6717 21 12.338 21 12C21 10.6746 20.7135 9.41608 20.199 8.28305Z" fill="white"/>
<path d="M10.1085 17.8915C10.3456 17.6544 10.7451 17.7159 10.836 18.0387C11.1091 19.0091 10.8984 20.0785 10.2203 20.8822C9.39964 21.8549 7.94231 22.3305 6.66972 21.6244C6.57445 21.5715 6.55763 21.4424 6.63468 21.3653L10.1085 17.8915Z" fill="white"/>
</svg>
