<svg width="24" height="24" viewBox="0 0 24 24" fill="none" xmlns="http://www.w3.org/2000/svg">
<path d="M12 3C7.02944 3 3 7.02944 3 12C3 12.338 3.01863 12.6717 3.05492 13H4.91738C6.54895 13 8.0779 13.7961 9.01354 15.1327L10.3909 17.1003C11.1983 18.2537 11.1283 19.8061 10.2203 20.8822C9.39964 21.8549 7.94231 22.3305 6.66972 21.6244C3.29064 19.7493 1 16.1428 1 12C1 5.92487 5.92487 1 12 1C18.0751 1 23 5.92487 23 12C23 16.1428 20.7094 19.7493 17.3303 21.6244C16.0577 22.3305 14.6004 21.8549 13.7797 20.8822C12.8717 19.8061 12.8017 18.2537 13.6091 17.1003L14.9865 15.1327C15.9221 13.7961 17.4511 13 19.0826 13H20.9451C20.9814 12.6717 21 12.338 21 12C21 7.02944 16.9706 3 12 3Z" fill="white"/>
</svg>
